<mxfile host="app.diagrams.net" modified="2024-03-15T18:29:18.125Z" agent="Mozilla/5.0 (Windows NT 10.0; Win64; x64) AppleWebKit/537.36 (KHTML, like Gecko) Chrome/122.0.0.0 Safari/537.36" etag="E_IP89ZGJ9YeD5i5ZAqT" version="24.0.7" type="device">
  <diagram name="Strona-1" id="2VhBPM73JccGWM5bMuiH">
    <mxGraphModel dx="2369" dy="918" grid="0" gridSize="10" guides="1" tooltips="1" connect="1" arrows="1" fold="1" page="0" pageScale="1" pageWidth="827" pageHeight="1169" math="0" shadow="0">
      <root>
        <mxCell id="0" />
        <mxCell id="1" parent="0" />
        <mxCell id="igKlVJRjT-ZjgtN8OfQl-2" value="Spółka celowa&lt;span style=&quot;white-space: pre;&quot;&gt;&#x9;&lt;/span&gt;" style="swimlane;html=1;childLayout=stackLayout;resizeParent=1;resizeParentMax=0;horizontal=0;startSize=20;horizontalStack=0;whiteSpace=wrap;" vertex="1" parent="1">
          <mxGeometry x="-127" y="218" width="1791" height="291" as="geometry" />
        </mxCell>
        <mxCell id="igKlVJRjT-ZjgtN8OfQl-3" value="Księgowa" style="swimlane;html=1;startSize=20;horizontal=0;" vertex="1" parent="igKlVJRjT-ZjgtN8OfQl-2">
          <mxGeometry x="20" width="1771" height="161" as="geometry" />
        </mxCell>
        <mxCell id="igKlVJRjT-ZjgtN8OfQl-36" value="weryfikacja poprawności premii" style="points=[[0.25,0,0],[0.5,0,0],[0.75,0,0],[1,0.25,0],[1,0.5,0],[1,0.75,0],[0.75,1,0],[0.5,1,0],[0.25,1,0],[0,0.75,0],[0,0.5,0],[0,0.25,0]];shape=mxgraph.bpmn.task;whiteSpace=wrap;rectStyle=rounded;size=10;html=1;container=1;expand=0;collapsible=0;taskMarker=abstract;" vertex="1" parent="igKlVJRjT-ZjgtN8OfQl-3">
          <mxGeometry x="365" y="70" width="120" height="80" as="geometry" />
        </mxCell>
        <mxCell id="igKlVJRjT-ZjgtN8OfQl-37" style="edgeStyle=orthogonalEdgeStyle;rounded=0;orthogonalLoop=1;jettySize=auto;html=1;entryX=0;entryY=0.5;entryDx=0;entryDy=0;entryPerimeter=0;" edge="1" parent="igKlVJRjT-ZjgtN8OfQl-3" target="igKlVJRjT-ZjgtN8OfQl-36">
          <mxGeometry relative="1" as="geometry">
            <mxPoint x="295.99998269895605" y="80.47058823529414" as="sourcePoint" />
          </mxGeometry>
        </mxCell>
        <mxCell id="igKlVJRjT-ZjgtN8OfQl-46" style="edgeStyle=orthogonalEdgeStyle;rounded=0;orthogonalLoop=1;jettySize=auto;html=1;exitX=1;exitY=0.5;exitDx=0;exitDy=0;exitPerimeter=0;" edge="1" parent="igKlVJRjT-ZjgtN8OfQl-3" source="igKlVJRjT-ZjgtN8OfQl-43" target="igKlVJRjT-ZjgtN8OfQl-45">
          <mxGeometry relative="1" as="geometry" />
        </mxCell>
        <mxCell id="igKlVJRjT-ZjgtN8OfQl-49" value="poprawna" style="edgeLabel;html=1;align=center;verticalAlign=middle;resizable=0;points=[];" vertex="1" connectable="0" parent="igKlVJRjT-ZjgtN8OfQl-46">
          <mxGeometry x="-0.0909" y="-1" relative="1" as="geometry">
            <mxPoint as="offset" />
          </mxGeometry>
        </mxCell>
        <mxCell id="igKlVJRjT-ZjgtN8OfQl-43" value="weryfikacja poprawności zwrotu kosztów" style="points=[[0.25,0,0],[0.5,0,0],[0.75,0,0],[1,0.25,0],[1,0.5,0],[1,0.75,0],[0.75,1,0],[0.5,1,0],[0.25,1,0],[0,0.75,0],[0,0.5,0],[0,0.25,0]];shape=mxgraph.bpmn.task;whiteSpace=wrap;rectStyle=rounded;size=10;html=1;container=1;expand=0;collapsible=0;taskMarker=abstract;" vertex="1" parent="igKlVJRjT-ZjgtN8OfQl-3">
          <mxGeometry x="554" y="70" width="120" height="80" as="geometry" />
        </mxCell>
        <mxCell id="igKlVJRjT-ZjgtN8OfQl-44" style="edgeStyle=orthogonalEdgeStyle;rounded=0;orthogonalLoop=1;jettySize=auto;html=1;exitX=1;exitY=0.5;exitDx=0;exitDy=0;exitPerimeter=0;entryX=0;entryY=0.5;entryDx=0;entryDy=0;entryPerimeter=0;" edge="1" parent="igKlVJRjT-ZjgtN8OfQl-3" source="igKlVJRjT-ZjgtN8OfQl-36" target="igKlVJRjT-ZjgtN8OfQl-43">
          <mxGeometry relative="1" as="geometry" />
        </mxCell>
        <mxCell id="igKlVJRjT-ZjgtN8OfQl-48" value="poprawna" style="edgeLabel;html=1;align=center;verticalAlign=middle;resizable=0;points=[];" vertex="1" connectable="0" parent="igKlVJRjT-ZjgtN8OfQl-44">
          <mxGeometry x="-0.1884" y="-2" relative="1" as="geometry">
            <mxPoint as="offset" />
          </mxGeometry>
        </mxCell>
        <mxCell id="igKlVJRjT-ZjgtN8OfQl-45" value="weryfikacja poprawności prowizji sprzedaży" style="points=[[0.25,0,0],[0.5,0,0],[0.75,0,0],[1,0.25,0],[1,0.5,0],[1,0.75,0],[0.75,1,0],[0.5,1,0],[0.25,1,0],[0,0.75,0],[0,0.5,0],[0,0.25,0]];shape=mxgraph.bpmn.task;whiteSpace=wrap;rectStyle=rounded;size=10;html=1;container=1;expand=0;collapsible=0;taskMarker=abstract;" vertex="1" parent="igKlVJRjT-ZjgtN8OfQl-3">
          <mxGeometry x="773" y="70" width="120" height="80" as="geometry" />
        </mxCell>
        <mxCell id="igKlVJRjT-ZjgtN8OfQl-115" value="&#xa;&lt;span style=&quot;color: rgb(0, 0, 0); font-family: Helvetica; font-size: 12px; font-style: normal; font-variant-ligatures: normal; font-variant-caps: normal; font-weight: 400; letter-spacing: normal; orphans: 2; text-align: center; text-indent: 0px; text-transform: none; widows: 2; word-spacing: 0px; -webkit-text-stroke-width: 0px; white-space: nowrap; background-color: rgb(255, 255, 255); text-decoration-thickness: initial; text-decoration-style: initial; text-decoration-color: initial; display: inline !important; float: none;&quot;&gt;odesłano&lt;/span&gt;&lt;br style=&quot;color: rgb(0, 0, 0); font-family: Helvetica; font-size: 12px; font-style: normal; font-variant-ligatures: normal; font-variant-caps: normal; font-weight: 400; letter-spacing: normal; orphans: 2; text-align: center; text-indent: 0px; text-transform: none; widows: 2; word-spacing: 0px; -webkit-text-stroke-width: 0px; white-space: nowrap; text-decoration-thickness: initial; text-decoration-style: initial; text-decoration-color: initial;&quot;&gt;&lt;span style=&quot;color: rgb(0, 0, 0); font-family: Helvetica; font-size: 12px; font-style: normal; font-variant-ligatures: normal; font-variant-caps: normal; font-weight: 400; letter-spacing: normal; orphans: 2; text-align: center; text-indent: 0px; text-transform: none; widows: 2; word-spacing: 0px; -webkit-text-stroke-width: 0px; white-space: nowrap; background-color: rgb(255, 255, 255); text-decoration-thickness: initial; text-decoration-style: initial; text-decoration-color: initial; display: inline !important; float: none;&quot;&gt;&amp;nbsp;do spółki matki&lt;/span&gt;&#xa;&#xa;" style="points=[[0.25,0,0],[0.5,0,0],[0.75,0,0],[1,0.25,0],[1,0.5,0],[1,0.75,0],[0.75,1,0],[0.5,1,0],[0.25,1,0],[0,0.75,0],[0,0.5,0],[0,0.25,0]];shape=mxgraph.bpmn.task;whiteSpace=wrap;rectStyle=rounded;size=10;html=1;container=1;expand=0;collapsible=0;taskMarker=abstract;" vertex="1" parent="igKlVJRjT-ZjgtN8OfQl-3">
          <mxGeometry x="1025" y="41" width="120" height="80" as="geometry" />
        </mxCell>
        <mxCell id="igKlVJRjT-ZjgtN8OfQl-117" value="&lt;span style=&quot;color: rgb(0, 0, 0); font-family: Helvetica; font-size: 12px; font-style: normal; font-variant-ligatures: normal; font-variant-caps: normal; font-weight: 400; letter-spacing: normal; orphans: 2; text-align: center; text-indent: 0px; text-transform: none; widows: 2; word-spacing: 0px; -webkit-text-stroke-width: 0px; white-space: nowrap; background-color: rgb(255, 255, 255); text-decoration-thickness: initial; text-decoration-style: initial; text-decoration-color: initial; display: inline !important; float: none;&quot;&gt;przesłanie faktury&lt;/span&gt;&lt;br style=&quot;color: rgb(0, 0, 0); font-family: Helvetica; font-size: 12px; font-style: normal; font-variant-ligatures: normal; font-variant-caps: normal; font-weight: 400; letter-spacing: normal; orphans: 2; text-align: center; text-indent: 0px; text-transform: none; widows: 2; word-spacing: 0px; -webkit-text-stroke-width: 0px; white-space: nowrap; text-decoration-thickness: initial; text-decoration-style: initial; text-decoration-color: initial;&quot;&gt;&lt;span style=&quot;color: rgb(0, 0, 0); font-family: Helvetica; font-size: 12px; font-style: normal; font-variant-ligatures: normal; font-variant-caps: normal; font-weight: 400; letter-spacing: normal; orphans: 2; text-align: center; text-indent: 0px; text-transform: none; widows: 2; word-spacing: 0px; -webkit-text-stroke-width: 0px; white-space: nowrap; background-color: rgb(255, 255, 255); text-decoration-thickness: initial; text-decoration-style: initial; text-decoration-color: initial; display: inline !important; float: none;&quot;&gt;&amp;nbsp;do kontraktora&lt;/span&gt;" style="points=[[0.25,0,0],[0.5,0,0],[0.75,0,0],[1,0.25,0],[1,0.5,0],[1,0.75,0],[0.75,1,0],[0.5,1,0],[0.25,1,0],[0,0.75,0],[0,0.5,0],[0,0.25,0]];shape=mxgraph.bpmn.task;whiteSpace=wrap;rectStyle=rounded;size=10;html=1;container=1;expand=0;collapsible=0;taskMarker=abstract;" vertex="1" parent="igKlVJRjT-ZjgtN8OfQl-3">
          <mxGeometry x="1180" y="40.5" width="120" height="80" as="geometry" />
        </mxCell>
        <mxCell id="igKlVJRjT-ZjgtN8OfQl-118" value="&#xa;&lt;span style=&quot;color: rgb(0, 0, 0); font-family: Helvetica; font-size: 12px; font-style: normal; font-variant-ligatures: normal; font-variant-caps: normal; font-weight: 400; letter-spacing: normal; orphans: 2; text-align: center; text-indent: 0px; text-transform: none; widows: 2; word-spacing: 0px; -webkit-text-stroke-width: 0px; white-space: nowrap; background-color: rgb(255, 255, 255); text-decoration-thickness: initial; text-decoration-style: initial; text-decoration-color: initial; display: inline !important; float: none;&quot;&gt;przesłanie faktury&lt;/span&gt;&lt;br style=&quot;color: rgb(0, 0, 0); font-family: Helvetica; font-size: 12px; font-style: normal; font-variant-ligatures: normal; font-variant-caps: normal; font-weight: 400; letter-spacing: normal; orphans: 2; text-align: center; text-indent: 0px; text-transform: none; widows: 2; word-spacing: 0px; -webkit-text-stroke-width: 0px; white-space: nowrap; text-decoration-thickness: initial; text-decoration-style: initial; text-decoration-color: initial;&quot;&gt;&lt;span style=&quot;color: rgb(0, 0, 0); font-family: Helvetica; font-size: 12px; font-style: normal; font-variant-ligatures: normal; font-variant-caps: normal; font-weight: 400; letter-spacing: normal; orphans: 2; text-align: center; text-indent: 0px; text-transform: none; widows: 2; word-spacing: 0px; -webkit-text-stroke-width: 0px; white-space: nowrap; background-color: rgb(255, 255, 255); text-decoration-thickness: initial; text-decoration-style: initial; text-decoration-color: initial; display: inline !important; float: none;&quot;&gt;&amp;nbsp;do spółki matki&lt;/span&gt;&#xa;&#xa;" style="points=[[0.25,0,0],[0.5,0,0],[0.75,0,0],[1,0.25,0],[1,0.5,0],[1,0.75,0],[0.75,1,0],[0.5,1,0],[0.25,1,0],[0,0.75,0],[0,0.5,0],[0,0.25,0]];shape=mxgraph.bpmn.task;whiteSpace=wrap;rectStyle=rounded;size=10;html=1;container=1;expand=0;collapsible=0;taskMarker=abstract;" vertex="1" parent="igKlVJRjT-ZjgtN8OfQl-3">
          <mxGeometry x="1341" y="38" width="120" height="80" as="geometry" />
        </mxCell>
        <mxCell id="igKlVJRjT-ZjgtN8OfQl-121" value="Otrzymanie FV" style="points=[[0.25,0,0],[0.5,0,0],[0.75,0,0],[1,0.25,0],[1,0.5,0],[1,0.75,0],[0.75,1,0],[0.5,1,0],[0.25,1,0],[0,0.75,0],[0,0.5,0],[0,0.25,0]];shape=mxgraph.bpmn.task;whiteSpace=wrap;rectStyle=rounded;size=10;html=1;container=1;expand=0;collapsible=0;taskMarker=abstract;" vertex="1" parent="igKlVJRjT-ZjgtN8OfQl-3">
          <mxGeometry x="222" y="44" width="120" height="80" as="geometry" />
        </mxCell>
        <mxCell id="igKlVJRjT-ZjgtN8OfQl-4" value="PM" style="swimlane;html=1;startSize=20;horizontal=0;" vertex="1" parent="igKlVJRjT-ZjgtN8OfQl-2">
          <mxGeometry x="20" y="161" width="1771" height="130" as="geometry" />
        </mxCell>
        <mxCell id="igKlVJRjT-ZjgtN8OfQl-113" value="&lt;span style=&quot;text-wrap: nowrap;&quot;&gt;podpisanie FV&lt;/span&gt;" style="points=[[0.25,0,0],[0.5,0,0],[0.75,0,0],[1,0.25,0],[1,0.5,0],[1,0.75,0],[0.75,1,0],[0.5,1,0],[0.25,1,0],[0,0.75,0],[0,0.5,0],[0,0.25,0]];shape=mxgraph.bpmn.task;whiteSpace=wrap;rectStyle=rounded;size=10;html=1;container=1;expand=0;collapsible=0;taskMarker=abstract;" vertex="1" parent="igKlVJRjT-ZjgtN8OfQl-4">
          <mxGeometry x="867" y="25" width="120" height="80" as="geometry" />
        </mxCell>
        <mxCell id="igKlVJRjT-ZjgtN8OfQl-65" style="edgeStyle=orthogonalEdgeStyle;rounded=0;orthogonalLoop=1;jettySize=auto;html=1;entryX=0.5;entryY=0;entryDx=0;entryDy=0;entryPerimeter=0;" edge="1" parent="igKlVJRjT-ZjgtN8OfQl-2" source="igKlVJRjT-ZjgtN8OfQl-45" target="igKlVJRjT-ZjgtN8OfQl-113">
          <mxGeometry relative="1" as="geometry">
            <mxPoint x="964" y="192" as="targetPoint" />
            <Array as="points">
              <mxPoint x="853" y="170" />
              <mxPoint x="947" y="170" />
            </Array>
          </mxGeometry>
        </mxCell>
        <mxCell id="igKlVJRjT-ZjgtN8OfQl-68" style="edgeStyle=orthogonalEdgeStyle;rounded=0;orthogonalLoop=1;jettySize=auto;html=1;entryX=0;entryY=0.5;entryDx=0;entryDy=0;entryPerimeter=0;" edge="1" parent="igKlVJRjT-ZjgtN8OfQl-2" source="igKlVJRjT-ZjgtN8OfQl-113" target="igKlVJRjT-ZjgtN8OfQl-115">
          <mxGeometry relative="1" as="geometry">
            <mxPoint x="989" y="217" as="sourcePoint" />
            <mxPoint x="1060" y="80.50000000000011" as="targetPoint" />
            <Array as="points">
              <mxPoint x="1025" y="226" />
              <mxPoint x="1025" y="81" />
            </Array>
          </mxGeometry>
        </mxCell>
        <mxCell id="igKlVJRjT-ZjgtN8OfQl-9" value="Spółka Matka" style="swimlane;html=1;childLayout=stackLayout;resizeParent=1;resizeParentMax=0;horizontal=0;startSize=20;horizontalStack=0;whiteSpace=wrap;" vertex="1" parent="1">
          <mxGeometry x="-127" y="556" width="1792" height="240" as="geometry" />
        </mxCell>
        <mxCell id="igKlVJRjT-ZjgtN8OfQl-10" value="Księgowa" style="swimlane;html=1;startSize=20;horizontal=0;" vertex="1" parent="igKlVJRjT-ZjgtN8OfQl-9">
          <mxGeometry x="20" width="1772" height="120" as="geometry" />
        </mxCell>
        <mxCell id="igKlVJRjT-ZjgtN8OfQl-70" value="weryfikacja wynagrodzenia bazowego" style="points=[[0.25,0,0],[0.5,0,0],[0.75,0,0],[1,0.25,0],[1,0.5,0],[1,0.75,0],[0.75,1,0],[0.5,1,0],[0.25,1,0],[0,0.75,0],[0,0.5,0],[0,0.25,0]];shape=mxgraph.bpmn.task;whiteSpace=wrap;rectStyle=rounded;size=10;html=1;container=1;expand=0;collapsible=0;taskMarker=abstract;" vertex="1" parent="igKlVJRjT-ZjgtN8OfQl-10">
          <mxGeometry x="1228" y="20" width="120" height="80" as="geometry" />
        </mxCell>
        <mxCell id="igKlVJRjT-ZjgtN8OfQl-111" style="edgeStyle=orthogonalEdgeStyle;rounded=0;orthogonalLoop=1;jettySize=auto;html=1;" edge="1" parent="igKlVJRjT-ZjgtN8OfQl-10" target="igKlVJRjT-ZjgtN8OfQl-70">
          <mxGeometry relative="1" as="geometry">
            <mxPoint x="1094" y="60" as="sourcePoint" />
          </mxGeometry>
        </mxCell>
        <mxCell id="igKlVJRjT-ZjgtN8OfQl-116" value="&lt;br&gt;&lt;span style=&quot;color: rgb(0, 0, 0); font-family: Helvetica; font-size: 12px; font-style: normal; font-variant-ligatures: normal; font-variant-caps: normal; font-weight: 400; letter-spacing: normal; orphans: 2; text-align: center; text-indent: 0px; text-transform: none; widows: 2; word-spacing: 0px; -webkit-text-stroke-width: 0px; white-space: nowrap; background-color: rgb(255, 255, 255); text-decoration-thickness: initial; text-decoration-style: initial; text-decoration-color: initial; display: inline !important; float: none;&quot;&gt;Otrzymanie&amp;nbsp; FV&lt;/span&gt;&lt;div&gt;&lt;br/&gt;&lt;/div&gt;" style="points=[[0.25,0,0],[0.5,0,0],[0.75,0,0],[1,0.25,0],[1,0.5,0],[1,0.75,0],[0.75,1,0],[0.5,1,0],[0.25,1,0],[0,0.75,0],[0,0.5,0],[0,0.25,0]];shape=mxgraph.bpmn.task;whiteSpace=wrap;rectStyle=rounded;size=10;html=1;container=1;expand=0;collapsible=0;taskMarker=abstract;" vertex="1" parent="igKlVJRjT-ZjgtN8OfQl-10">
          <mxGeometry x="1076" y="18" width="120" height="80" as="geometry" />
        </mxCell>
        <mxCell id="igKlVJRjT-ZjgtN8OfQl-119" value="&lt;div&gt;Przesłanie do spółki córki&lt;/div&gt;" style="points=[[0.25,0,0],[0.5,0,0],[0.75,0,0],[1,0.25,0],[1,0.5,0],[1,0.75,0],[0.75,1,0],[0.5,1,0],[0.25,1,0],[0,0.75,0],[0,0.5,0],[0,0.25,0]];shape=mxgraph.bpmn.task;whiteSpace=wrap;rectStyle=rounded;size=10;html=1;container=1;expand=0;collapsible=0;taskMarker=abstract;" vertex="1" parent="igKlVJRjT-ZjgtN8OfQl-10">
          <mxGeometry x="150" y="20" width="120" height="80" as="geometry" />
        </mxCell>
        <mxCell id="igKlVJRjT-ZjgtN8OfQl-11" value="Księgowa Główna" style="swimlane;html=1;startSize=20;horizontal=0;" vertex="1" parent="igKlVJRjT-ZjgtN8OfQl-9">
          <mxGeometry x="20" y="120" width="1772" height="120" as="geometry" />
        </mxCell>
        <mxCell id="igKlVJRjT-ZjgtN8OfQl-84" style="edgeStyle=orthogonalEdgeStyle;rounded=0;orthogonalLoop=1;jettySize=auto;html=1;entryX=0;entryY=0.5;entryDx=0;entryDy=0;entryPerimeter=0;" edge="1" parent="igKlVJRjT-ZjgtN8OfQl-11" source="igKlVJRjT-ZjgtN8OfQl-82" target="igKlVJRjT-ZjgtN8OfQl-85">
          <mxGeometry relative="1" as="geometry">
            <mxPoint x="1626" y="53" as="targetPoint" />
          </mxGeometry>
        </mxCell>
        <mxCell id="igKlVJRjT-ZjgtN8OfQl-82" value="skierowanie do wypłaty" style="points=[[0.25,0,0],[0.5,0,0],[0.75,0,0],[1,0.25,0],[1,0.5,0],[1,0.75,0],[0.75,1,0],[0.5,1,0],[0.25,1,0],[0,0.75,0],[0,0.5,0],[0,0.25,0]];shape=mxgraph.bpmn.task;whiteSpace=wrap;rectStyle=rounded;size=10;html=1;container=1;expand=0;collapsible=0;taskMarker=abstract;" vertex="1" parent="igKlVJRjT-ZjgtN8OfQl-11">
          <mxGeometry x="1344" y="20" width="120" height="80" as="geometry" />
        </mxCell>
        <mxCell id="igKlVJRjT-ZjgtN8OfQl-85" value="" style="points=[[0.145,0.145,0],[0.5,0,0],[0.855,0.145,0],[1,0.5,0],[0.855,0.855,0],[0.5,1,0],[0.145,0.855,0],[0,0.5,0]];shape=mxgraph.bpmn.event;html=1;verticalLabelPosition=bottom;labelBackgroundColor=#ffffff;verticalAlign=top;align=center;perimeter=ellipsePerimeter;outlineConnect=0;aspect=fixed;outline=end;symbol=terminate2;" vertex="1" parent="igKlVJRjT-ZjgtN8OfQl-11">
          <mxGeometry x="1579" y="35" width="50" height="50" as="geometry" />
        </mxCell>
        <mxCell id="igKlVJRjT-ZjgtN8OfQl-81" value="" style="edgeStyle=orthogonalEdgeStyle;rounded=0;orthogonalLoop=1;jettySize=auto;html=1;exitX=0.5;exitY=1;exitDx=0;exitDy=0;exitPerimeter=0;entryX=0;entryY=0.5;entryDx=0;entryDy=0;entryPerimeter=0;" edge="1" parent="igKlVJRjT-ZjgtN8OfQl-9" source="igKlVJRjT-ZjgtN8OfQl-70" target="igKlVJRjT-ZjgtN8OfQl-82">
          <mxGeometry relative="1" as="geometry">
            <mxPoint x="568" y="180" as="sourcePoint" />
            <mxPoint x="648" y="180" as="targetPoint" />
          </mxGeometry>
        </mxCell>
        <mxCell id="igKlVJRjT-ZjgtN8OfQl-106" value="poprawne" style="edgeLabel;html=1;align=center;verticalAlign=middle;resizable=0;points=[];" vertex="1" connectable="0" parent="igKlVJRjT-ZjgtN8OfQl-81">
          <mxGeometry x="0.0765" y="3" relative="1" as="geometry">
            <mxPoint x="-1" as="offset" />
          </mxGeometry>
        </mxCell>
        <mxCell id="igKlVJRjT-ZjgtN8OfQl-19" value="Kontraktor" style="swimlane;startSize=20;horizontal=0;html=1;whiteSpace=wrap;fontStyle=0" vertex="1" parent="1">
          <mxGeometry x="-122" y="27" width="1783" height="143" as="geometry" />
        </mxCell>
        <mxCell id="igKlVJRjT-ZjgtN8OfQl-23" style="edgeStyle=orthogonalEdgeStyle;rounded=0;orthogonalLoop=1;jettySize=auto;html=1;exitX=1;exitY=0.5;exitDx=0;exitDy=0;exitPerimeter=0;" edge="1" parent="igKlVJRjT-ZjgtN8OfQl-19" source="igKlVJRjT-ZjgtN8OfQl-20" target="igKlVJRjT-ZjgtN8OfQl-24">
          <mxGeometry relative="1" as="geometry">
            <mxPoint x="170" y="45" as="targetPoint" />
          </mxGeometry>
        </mxCell>
        <mxCell id="igKlVJRjT-ZjgtN8OfQl-20" value="wystawiono FV" style="points=[[0.145,0.145,0],[0.5,0,0],[0.855,0.145,0],[1,0.5,0],[0.855,0.855,0],[0.5,1,0],[0.145,0.855,0],[0,0.5,0]];shape=mxgraph.bpmn.event;html=1;verticalLabelPosition=bottom;labelBackgroundColor=#ffffff;verticalAlign=top;align=center;perimeter=ellipsePerimeter;outlineConnect=0;aspect=fixed;outline=standard;symbol=general;" vertex="1" parent="igKlVJRjT-ZjgtN8OfQl-19">
          <mxGeometry x="40" y="20" width="50" height="50" as="geometry" />
        </mxCell>
        <mxCell id="igKlVJRjT-ZjgtN8OfQl-24" value="czy wysłane do matki" style="points=[[0.25,0.25,0],[0.5,0,0],[0.75,0.25,0],[1,0.5,0],[0.75,0.75,0],[0.5,1,0],[0.25,0.75,0],[0,0.5,0]];shape=mxgraph.bpmn.gateway2;html=1;verticalLabelPosition=bottom;labelBackgroundColor=#ffffff;verticalAlign=top;align=center;perimeter=rhombusPerimeter;outlineConnect=0;outline=none;symbol=none;" vertex="1" parent="igKlVJRjT-ZjgtN8OfQl-19">
          <mxGeometry x="170" y="20" width="50" height="50" as="geometry" />
        </mxCell>
        <mxCell id="igKlVJRjT-ZjgtN8OfQl-58" value="poprawianie FV" style="points=[[0.25,0,0],[0.5,0,0],[0.75,0,0],[1,0.25,0],[1,0.5,0],[1,0.75,0],[0.75,1,0],[0.5,1,0],[0.25,1,0],[0,0.75,0],[0,0.5,0],[0,0.25,0]];shape=mxgraph.bpmn.task;whiteSpace=wrap;rectStyle=rounded;size=10;html=1;container=1;expand=0;collapsible=0;taskMarker=abstract;" vertex="1" parent="igKlVJRjT-ZjgtN8OfQl-19">
          <mxGeometry x="822" y="38" width="120" height="80" as="geometry" />
        </mxCell>
        <mxCell id="igKlVJRjT-ZjgtN8OfQl-59" style="edgeStyle=orthogonalEdgeStyle;rounded=0;orthogonalLoop=1;jettySize=auto;html=1;entryX=0;entryY=0.5;entryDx=0;entryDy=0;entryPerimeter=0;exitX=1;exitY=0.5;exitDx=0;exitDy=0;exitPerimeter=0;" edge="1" parent="igKlVJRjT-ZjgtN8OfQl-19" source="igKlVJRjT-ZjgtN8OfQl-120" target="igKlVJRjT-ZjgtN8OfQl-58">
          <mxGeometry relative="1" as="geometry">
            <mxPoint x="563.9999307957523" y="66.05882352941171" as="sourcePoint" />
            <Array as="points">
              <mxPoint x="822" y="72" />
            </Array>
          </mxGeometry>
        </mxCell>
        <mxCell id="igKlVJRjT-ZjgtN8OfQl-120" value="&#xa;&lt;span style=&quot;color: rgb(0, 0, 0); font-family: Helvetica; font-size: 12px; font-style: normal; font-variant-ligatures: normal; font-variant-caps: normal; font-weight: 400; letter-spacing: normal; orphans: 2; text-align: center; text-indent: 0px; text-transform: none; widows: 2; word-spacing: 0px; -webkit-text-stroke-width: 0px; white-space: nowrap; background-color: rgb(255, 255, 255); text-decoration-thickness: initial; text-decoration-style: initial; text-decoration-color: initial; display: inline !important; float: none;&quot;&gt;Otrzymano FV&lt;/span&gt;&#xa;&#xa;" style="points=[[0.25,0,0],[0.5,0,0],[0.75,0,0],[1,0.25,0],[1,0.5,0],[1,0.75,0],[0.75,1,0],[0.5,1,0],[0.25,1,0],[0,0.75,0],[0,0.5,0],[0,0.25,0]];shape=mxgraph.bpmn.task;whiteSpace=wrap;rectStyle=rounded;size=10;html=1;container=1;expand=0;collapsible=0;taskMarker=abstract;" vertex="1" parent="igKlVJRjT-ZjgtN8OfQl-19">
          <mxGeometry x="477" y="32" width="120" height="80" as="geometry" />
        </mxCell>
        <mxCell id="igKlVJRjT-ZjgtN8OfQl-34" value="" style="edgeStyle=elbowEdgeStyle;fontSize=12;html=1;endFill=0;startFill=0;endSize=6;startSize=6;dashed=1;dashPattern=12 12;endArrow=block;startArrow=oval;rounded=0;exitX=1;exitY=0.5;exitDx=0;exitDy=0;exitPerimeter=0;entryX=0.366;entryY=0.015;entryDx=0;entryDy=0;entryPerimeter=0;" edge="1" parent="1" source="igKlVJRjT-ZjgtN8OfQl-24" target="igKlVJRjT-ZjgtN8OfQl-121">
          <mxGeometry width="160" relative="1" as="geometry">
            <mxPoint x="550" y="90" as="sourcePoint" />
            <mxPoint x="161" y="255" as="targetPoint" />
            <Array as="points">
              <mxPoint x="161" y="170" />
            </Array>
          </mxGeometry>
        </mxCell>
        <mxCell id="igKlVJRjT-ZjgtN8OfQl-102" value="NIE" style="edgeLabel;html=1;align=center;verticalAlign=middle;resizable=0;points=[];" vertex="1" connectable="0" parent="igKlVJRjT-ZjgtN8OfQl-34">
          <mxGeometry x="-0.6573" y="-1" relative="1" as="geometry">
            <mxPoint y="-1" as="offset" />
          </mxGeometry>
        </mxCell>
        <mxCell id="igKlVJRjT-ZjgtN8OfQl-35" value="" style="edgeStyle=elbowEdgeStyle;fontSize=12;html=1;endFill=0;startFill=0;endSize=6;startSize=6;dashed=1;dashPattern=12 12;endArrow=block;startArrow=oval;rounded=0;exitX=0.5;exitY=0;exitDx=0;exitDy=0;exitPerimeter=0;" edge="1" parent="1" source="igKlVJRjT-ZjgtN8OfQl-119">
          <mxGeometry width="160" relative="1" as="geometry">
            <mxPoint x="72" y="560" as="sourcePoint" />
            <mxPoint x="115" y="299" as="targetPoint" />
            <Array as="points">
              <mxPoint x="107" y="428" />
            </Array>
          </mxGeometry>
        </mxCell>
        <mxCell id="igKlVJRjT-ZjgtN8OfQl-67" value="niezweryfikowana" style="edgeLabel;html=1;align=center;verticalAlign=middle;resizable=0;points=[];" vertex="1" connectable="0" parent="igKlVJRjT-ZjgtN8OfQl-35">
          <mxGeometry x="-0.1627" y="-5" relative="1" as="geometry">
            <mxPoint as="offset" />
          </mxGeometry>
        </mxCell>
        <mxCell id="igKlVJRjT-ZjgtN8OfQl-53" style="edgeStyle=orthogonalEdgeStyle;rounded=0;orthogonalLoop=1;jettySize=auto;html=1;dashed=1;endArrow=block;endFill=0;dashPattern=12 12;startArrow=oval;startFill=0;" edge="1" parent="1" source="igKlVJRjT-ZjgtN8OfQl-43">
          <mxGeometry relative="1" as="geometry">
            <mxPoint x="417" y="141" as="targetPoint" />
            <Array as="points">
              <mxPoint x="507" y="275" />
              <mxPoint x="417" y="275" />
            </Array>
          </mxGeometry>
        </mxCell>
        <mxCell id="igKlVJRjT-ZjgtN8OfQl-55" value="niepoprawne koszty" style="edgeLabel;html=1;align=center;verticalAlign=middle;resizable=0;points=[];" vertex="1" connectable="0" parent="igKlVJRjT-ZjgtN8OfQl-53">
          <mxGeometry x="-0.4764" relative="1" as="geometry">
            <mxPoint x="11" y="-9" as="offset" />
          </mxGeometry>
        </mxCell>
        <mxCell id="igKlVJRjT-ZjgtN8OfQl-54" style="edgeStyle=orthogonalEdgeStyle;rounded=0;orthogonalLoop=1;jettySize=auto;html=1;dashed=1;endArrow=block;endFill=0;dashPattern=12 12;startArrow=oval;startFill=0;" edge="1" parent="1" source="igKlVJRjT-ZjgtN8OfQl-45">
          <mxGeometry relative="1" as="geometry">
            <mxPoint x="417" y="140" as="targetPoint" />
            <Array as="points">
              <mxPoint x="728" y="247" />
              <mxPoint x="418" y="247" />
              <mxPoint x="418" y="129" />
            </Array>
          </mxGeometry>
        </mxCell>
        <mxCell id="igKlVJRjT-ZjgtN8OfQl-56" value="niepoprawna prowizja" style="edgeLabel;html=1;align=center;verticalAlign=middle;resizable=0;points=[];" vertex="1" connectable="0" parent="igKlVJRjT-ZjgtN8OfQl-54">
          <mxGeometry x="-0.3056" y="1" relative="1" as="geometry">
            <mxPoint as="offset" />
          </mxGeometry>
        </mxCell>
        <mxCell id="igKlVJRjT-ZjgtN8OfQl-76" value="niepoprawna premia" style="edgeStyle=orthogonalEdgeStyle;rounded=0;orthogonalLoop=1;jettySize=auto;html=1;dashed=1;endArrow=block;endFill=0;startArrow=oval;startFill=0;dashPattern=12 12;" edge="1" parent="1" source="igKlVJRjT-ZjgtN8OfQl-36">
          <mxGeometry x="-0.6321" y="8" relative="1" as="geometry">
            <mxPoint x="417" y="137" as="targetPoint" />
            <Array as="points">
              <mxPoint x="318" y="260" />
              <mxPoint x="418" y="260" />
            </Array>
            <mxPoint as="offset" />
          </mxGeometry>
        </mxCell>
        <mxCell id="igKlVJRjT-ZjgtN8OfQl-33" value="" style="edgeStyle=elbowEdgeStyle;fontSize=12;html=1;endFill=0;startFill=0;endSize=6;startSize=6;dashed=1;dashPattern=12 12;endArrow=block;startArrow=oval;rounded=0;exitX=0.5;exitY=1;exitDx=0;exitDy=0;exitPerimeter=0;entryX=0;entryY=0.5;entryDx=0;entryDy=0;entryPerimeter=0;" edge="1" parent="1" source="igKlVJRjT-ZjgtN8OfQl-24">
          <mxGeometry width="160" relative="1" as="geometry">
            <mxPoint x="272" y="145" as="sourcePoint" />
            <mxPoint x="47" y="585" as="targetPoint" />
            <Array as="points">
              <mxPoint x="25" y="521" />
            </Array>
          </mxGeometry>
        </mxCell>
        <mxCell id="igKlVJRjT-ZjgtN8OfQl-101" value="TAK" style="edgeLabel;html=1;align=center;verticalAlign=middle;resizable=0;points=[];" vertex="1" connectable="0" parent="igKlVJRjT-ZjgtN8OfQl-33">
          <mxGeometry x="-0.1362" y="-2" relative="1" as="geometry">
            <mxPoint as="offset" />
          </mxGeometry>
        </mxCell>
        <mxCell id="igKlVJRjT-ZjgtN8OfQl-89" value="niepoprawne wynagrodzenie bazowe" style="edgeStyle=orthogonalEdgeStyle;rounded=0;orthogonalLoop=1;jettySize=auto;html=1;dashed=1;endArrow=block;endFill=0;dashPattern=12 12;startArrow=oval;startFill=0;" edge="1" parent="1" source="igKlVJRjT-ZjgtN8OfQl-70" target="igKlVJRjT-ZjgtN8OfQl-117">
          <mxGeometry relative="1" as="geometry">
            <mxPoint x="1117" y="322.1854385646542" as="targetPoint" />
            <Array as="points">
              <mxPoint x="1185" y="433" />
              <mxPoint x="1133" y="433" />
            </Array>
          </mxGeometry>
        </mxCell>
        <mxCell id="igKlVJRjT-ZjgtN8OfQl-90" style="edgeStyle=orthogonalEdgeStyle;rounded=0;orthogonalLoop=1;jettySize=auto;html=1;dashed=1;endArrow=block;endFill=0;dashPattern=12 12;startArrow=oval;startFill=0;exitX=0.5;exitY=0;exitDx=0;exitDy=0;exitPerimeter=0;entryX=0.5;entryY=1;entryDx=0;entryDy=0;entryPerimeter=0;" edge="1" parent="1" source="igKlVJRjT-ZjgtN8OfQl-117" target="igKlVJRjT-ZjgtN8OfQl-120">
          <mxGeometry relative="1" as="geometry">
            <mxPoint x="1127" y="273.58012841124594" as="sourcePoint" />
            <mxPoint x="417" y="118" as="targetPoint" />
            <Array as="points">
              <mxPoint x="1133" y="230" />
              <mxPoint x="418" y="230" />
              <mxPoint x="418" y="139" />
            </Array>
          </mxGeometry>
        </mxCell>
        <mxCell id="igKlVJRjT-ZjgtN8OfQl-94" value="nieopoprawne wynagrodzenie bazowe" style="edgeLabel;html=1;align=center;verticalAlign=middle;resizable=0;points=[];" vertex="1" connectable="0" parent="igKlVJRjT-ZjgtN8OfQl-90">
          <mxGeometry x="-0.3909" y="-1" relative="1" as="geometry">
            <mxPoint as="offset" />
          </mxGeometry>
        </mxCell>
        <mxCell id="igKlVJRjT-ZjgtN8OfQl-93" value="poprawione wynagrodzenie bazowe" style="edgeStyle=orthogonalEdgeStyle;rounded=0;orthogonalLoop=1;jettySize=auto;html=1;entryX=0.5;entryY=0;entryDx=0;entryDy=0;entryPerimeter=0;dashed=1;endArrow=block;endFill=0;dashPattern=12 12;startArrow=oval;startFill=0;" edge="1" parent="1" source="igKlVJRjT-ZjgtN8OfQl-58" target="igKlVJRjT-ZjgtN8OfQl-118">
          <mxGeometry relative="1" as="geometry">
            <mxPoint x="1293" y="273.5000000000001" as="targetPoint" />
          </mxGeometry>
        </mxCell>
        <mxCell id="igKlVJRjT-ZjgtN8OfQl-97" style="edgeStyle=orthogonalEdgeStyle;rounded=0;orthogonalLoop=1;jettySize=auto;html=1;dashed=1;endArrow=block;endFill=0;dashPattern=12 12;startArrow=oval;startFill=0;entryX=0.5;entryY=0;entryDx=0;entryDy=0;entryPerimeter=0;exitX=0.5;exitY=1;exitDx=0;exitDy=0;exitPerimeter=0;" edge="1" parent="1" source="igKlVJRjT-ZjgtN8OfQl-118" target="igKlVJRjT-ZjgtN8OfQl-116">
          <mxGeometry relative="1" as="geometry">
            <mxPoint x="1293" y="323.5000000000001" as="sourcePoint" />
            <mxPoint x="957" y="569" as="targetPoint" />
            <Array as="points">
              <mxPoint x="1294" y="496" />
              <mxPoint x="1033" y="496" />
            </Array>
          </mxGeometry>
        </mxCell>
        <mxCell id="igKlVJRjT-ZjgtN8OfQl-98" style="edgeStyle=orthogonalEdgeStyle;rounded=0;orthogonalLoop=1;jettySize=auto;html=1;dashed=1;endArrow=block;endFill=0;startArrow=oval;startFill=0;dashPattern=12 12;" edge="1" parent="1" source="igKlVJRjT-ZjgtN8OfQl-58">
          <mxGeometry relative="1" as="geometry">
            <mxPoint x="187" y="261" as="targetPoint" />
            <Array as="points">
              <mxPoint x="725" y="40" />
              <mxPoint x="187" y="40" />
            </Array>
          </mxGeometry>
        </mxCell>
        <mxCell id="igKlVJRjT-ZjgtN8OfQl-99" value="poprawione składniki niebazowe" style="edgeLabel;html=1;align=center;verticalAlign=middle;resizable=0;points=[];" vertex="1" connectable="0" parent="igKlVJRjT-ZjgtN8OfQl-98">
          <mxGeometry x="-0.1713" y="1" relative="1" as="geometry">
            <mxPoint as="offset" />
          </mxGeometry>
        </mxCell>
        <mxCell id="igKlVJRjT-ZjgtN8OfQl-69" style="edgeStyle=orthogonalEdgeStyle;rounded=0;orthogonalLoop=1;jettySize=auto;html=1;dashed=1;endArrow=block;endFill=0;dashPattern=12 12;startArrow=oval;startFill=0;exitX=0.5;exitY=1;exitDx=0;exitDy=0;exitPerimeter=0;entryX=0;entryY=0.5;entryDx=0;entryDy=0;entryPerimeter=0;" edge="1" parent="1" source="igKlVJRjT-ZjgtN8OfQl-115" target="igKlVJRjT-ZjgtN8OfQl-116">
          <mxGeometry relative="1" as="geometry">
            <mxPoint x="1396" y="353" as="sourcePoint" />
            <mxPoint x="975" y="548" as="targetPoint" />
            <Array as="points">
              <mxPoint x="978" y="400" />
              <mxPoint x="939" y="400" />
              <mxPoint x="939" y="609" />
              <mxPoint x="973" y="609" />
              <mxPoint x="973" y="614" />
            </Array>
          </mxGeometry>
        </mxCell>
        <mxCell id="igKlVJRjT-ZjgtN8OfQl-103" value="podpisana faktura" style="edgeLabel;html=1;align=center;verticalAlign=middle;resizable=0;points=[];" vertex="1" connectable="0" parent="igKlVJRjT-ZjgtN8OfQl-69">
          <mxGeometry x="-0.2423" y="3" relative="1" as="geometry">
            <mxPoint x="-6" y="96" as="offset" />
          </mxGeometry>
        </mxCell>
      </root>
    </mxGraphModel>
  </diagram>
</mxfile>
